<?xml version="1.0" encoding="UTF-8"?>
<svg xmlns="http://www.w3.org/2000/svg" xmlns:xlink="http://www.w3.org/1999/xlink" width="280px" height="123px" viewBox="0 0 280 123" version="1.1">
  <g id="surface1">
    <path style=" stroke:none;fill-rule:evenodd;fill:rgb(80.784315%,67.450982%,36.862746%);fill-opacity:1;" d="M 61.1875 121.964844 C 94.398438 121.964844 121.320312 94.914062 121.320312 61.546875 C 121.320312 28.175781 94.398438 1.125 61.1875 1.125 C 27.96875 1.125 1.046875 28.175781 1.046875 61.546875 C 1.046875 94.914062 27.96875 121.964844 61.1875 121.964844 Z M 61.1875 121.964844 "></path>
    <path style=" stroke:none;fill-rule:nonzero;fill:rgb(0%,0%,0%);fill-opacity:1;" d="M 97.105469 74.675781 L 104.414062 74.675781 L 104.414062 48.578125 L 97.105469 48.578125 Z M 71.53125 48.585938 L 78.84375 48.585938 L 71.53125 63.851562 L 71.53125 64.65625 C 71.53125 71.125 74.378906 74.675781 80.949219 74.675781 C 82.925781 74.675781 85.28125 74.277344 86.902344 73.074219 L 84.933594 67.894531 C 84.113281 68.527344 83.132812 68.835938 81.980469 68.835938 C 79.347656 68.835938 78.84375 66.863281 78.84375 64.5625 L 78.84375 55.9375 L 82.609375 55.9375 L 86.121094 48.585938 L 78.84375 48.585938 L 78.84375 41.230469 L 71.53125 41.230469 Z M 50.25 48.5625 C 46.738281 48.5625 43.351562 49.894531 41.15625 52.710938 C 39.300781 49.839844 36.191406 48.5625 32.863281 48.5625 C 30.007812 48.5625 27.289062 49.441406 25.269531 51.527344 L 25.269531 48.578125 L 17.953125 48.578125 L 17.953125 74.675781 L 25.269531 74.675781 L 25.269531 61.570312 C 25.269531 57.925781 26.808594 54.925781 30.796875 54.925781 C 33.992188 54.925781 35.582031 56.921875 35.582031 60.914062 L 35.582031 74.675781 L 42.890625 74.675781 L 42.890625 61.570312 C 42.890625 57.882812 44.453125 54.925781 48.476562 54.925781 C 52.113281 54.925781 53.257812 57.667969 53.257812 60.914062 L 53.257812 74.675781 L 60.574219 74.675781 L 60.574219 59.78125 C 60.574219 53.03125 57.257812 48.5625 50.257812 48.5625 Z M 50.25 48.5625 "></path>
    <path style=" stroke:none;fill-rule:nonzero;fill:rgb(0%,0%,0%);fill-opacity:1;" d="M 267.964844 48.683594 C 270.230469 48.683594 272.191406 49.0625 273.855469 49.820312 C 275.535156 50.578125 276.828125 51.660156 277.726562 53.054688 C 278.632812 54.453125 279.082031 56.105469 279.082031 58.015625 C 279.082031 59.902344 278.632812 61.554688 277.726562 62.976562 C 276.828125 64.375 275.535156 65.449219 273.855469 66.210938 C 272.191406 66.945312 270.230469 67.3125 267.964844 67.3125 L 262.808594 67.3125 L 262.808594 74.40625 L 256.878906 74.40625 L 256.878906 48.683594 Z M 267.636719 62.460938 C 269.414062 62.460938 270.765625 62.082031 271.695312 61.324219 C 272.621094 60.539062 273.085938 59.433594 273.085938 58.015625 C 273.085938 56.570312 272.621094 55.46875 271.695312 54.710938 C 270.765625 53.925781 269.414062 53.535156 267.636719 53.535156 L 262.808594 53.535156 L 262.808594 62.460938 Z M 267.636719 62.460938 "></path>
    <path style=" stroke:none;fill-rule:nonzero;fill:rgb(0%,0%,0%);fill-opacity:1;" d="M 239.429688 74.847656 C 235.773438 74.847656 232.917969 73.828125 230.875 71.796875 C 228.851562 69.765625 227.835938 66.859375 227.835938 63.089844 L 227.835938 48.683594 L 233.757812 48.683594 L 233.757812 62.867188 C 233.757812 67.472656 235.664062 69.773438 239.46875 69.773438 C 241.324219 69.773438 242.738281 69.226562 243.710938 68.121094 C 244.683594 66.996094 245.171875 65.242188 245.171875 62.867188 L 245.171875 48.683594 L 251.027344 48.683594 L 251.027344 63.089844 C 251.027344 66.859375 250 69.765625 247.953125 71.796875 C 245.929688 73.828125 243.089844 74.847656 239.429688 74.847656 Z M 239.429688 74.847656 "></path>
    <path style=" stroke:none;fill-rule:nonzero;fill:rgb(0%,0%,0%);fill-opacity:1;" d="M 209.59375 74.847656 C 206.933594 74.847656 204.535156 74.269531 202.386719 73.121094 C 200.265625 71.96875 198.59375 70.386719 197.375 68.378906 C 196.179688 66.347656 195.582031 64.066406 195.582031 61.542969 C 195.582031 59.023438 196.179688 56.753906 197.375 54.742188 C 198.59375 52.710938 200.265625 51.121094 202.386719 49.96875 C 204.535156 48.816406 206.933594 48.242188 209.59375 48.242188 C 212.25 48.242188 214.640625 48.816406 216.761719 49.96875 C 218.882812 51.121094 220.554688 52.710938 221.773438 54.742188 C 222.992188 56.753906 223.601562 59.023438 223.601562 61.542969 C 223.601562 64.066406 222.992188 66.347656 221.773438 68.378906 C 220.554688 70.386719 218.882812 71.96875 216.761719 73.121094 C 214.640625 74.269531 212.25 74.847656 209.59375 74.847656 Z M 209.59375 69.773438 C 211.105469 69.773438 212.46875 69.433594 213.6875 68.746094 C 214.910156 68.035156 215.859375 67.054688 216.542969 65.808594 C 217.25 64.554688 217.601562 63.136719 217.601562 61.542969 C 217.601562 59.953125 217.25 58.527344 216.542969 57.28125 C 215.859375 56.035156 214.910156 55.0625 213.6875 54.378906 C 212.46875 53.667969 211.105469 53.3125 209.59375 53.3125 C 208.082031 53.3125 206.714844 53.667969 205.496094 54.378906 C 204.277344 55.0625 203.316406 56.035156 202.605469 57.28125 C 201.921875 58.527344 201.582031 59.953125 201.582031 61.542969 C 201.582031 63.136719 201.921875 64.554688 202.605469 65.808594 C 203.316406 67.054688 204.277344 68.035156 205.496094 68.746094 C 206.714844 69.433594 208.082031 69.773438 209.59375 69.773438 Z M 209.59375 69.773438 "></path>
    <path style=" stroke:none;fill-rule:nonzero;fill:rgb(0%,0%,0%);fill-opacity:1;" d="M 186.605469 74.40625 L 181.671875 67.242188 L 176.21875 67.242188 L 176.21875 74.40625 L 170.296875 74.40625 L 170.296875 48.683594 L 181.378906 48.683594 C 183.644531 48.683594 185.609375 49.0625 187.265625 49.820312 C 188.949219 50.578125 190.242188 51.660156 191.144531 53.054688 C 192.046875 54.453125 192.496094 56.105469 192.496094 58.015625 C 192.496094 59.929688 192.03125 61.582031 191.109375 62.976562 C 190.203125 64.347656 188.910156 65.402344 187.230469 66.136719 L 192.972656 74.40625 Z M 186.496094 58.015625 C 186.496094 56.570312 186.035156 55.46875 185.109375 54.710938 C 184.183594 53.925781 182.828125 53.535156 181.050781 53.535156 L 176.21875 53.535156 L 176.21875 62.5 L 181.050781 62.5 C 182.828125 62.5 184.183594 62.105469 185.109375 61.324219 C 186.035156 60.539062 186.496094 59.433594 186.496094 58.015625 Z M 186.496094 58.015625 "></path>
    <path style=" stroke:none;fill-rule:nonzero;fill:rgb(0%,0%,0%);fill-opacity:1;" d="M 159.378906 61.140625 L 164.792969 61.140625 L 164.792969 71.578125 C 163.402344 72.628906 161.796875 73.4375 159.964844 74 C 158.136719 74.566406 156.292969 74.847656 154.441406 74.847656 C 151.78125 74.847656 149.394531 74.28125 147.273438 73.15625 C 145.148438 72.003906 143.484375 70.425781 142.261719 68.417969 C 141.070312 66.378906 140.472656 64.09375 140.472656 61.542969 C 140.472656 58.996094 141.070312 56.714844 142.261719 54.710938 C 143.484375 52.675781 145.160156 51.09375 147.3125 49.96875 C 149.457031 48.816406 151.867188 48.242188 154.550781 48.242188 C 156.792969 48.242188 158.828125 48.621094 160.660156 49.378906 C 162.488281 50.140625 164.023438 51.242188 165.269531 52.6875 L 161.460938 56.214844 C 159.636719 54.28125 157.429688 53.3125 154.84375 53.3125 C 153.210938 53.3125 151.757812 53.65625 150.492188 54.34375 C 149.222656 55.027344 148.238281 55.996094 147.53125 57.242188 C 146.824219 58.496094 146.46875 59.929688 146.46875 61.542969 C 146.46875 63.136719 146.824219 64.554688 147.53125 65.808594 C 148.238281 67.054688 149.210938 68.035156 150.453125 68.746094 C 151.722656 69.433594 153.164062 69.773438 154.769531 69.773438 C 156.476562 69.773438 158.011719 69.40625 159.378906 68.671875 Z M 159.378906 61.140625 "></path>
  </g>
</svg>
